{"title":"Anal.Starlets.DiSC2.XviD-SWE6RUS","uid":7861716,"size":1462987208,"categoryP":"porn","categoryS":"movies","magnet":"?xt=urn:btih:32f8612038e5a148e79c91110e923de76a3be42f&amp;dn=Anal.Starlets.DiSC2.XviD-SWE6RUS&amp;tr=udp%3A%2F%2Ftracker.openbittorrent.com%3A80&amp;tr=udp%3A%2F%2Fopen.demonii.com%3A1337&amp;tr=udp%3A%2F%2Ftracker.coppersurfer.tk%3A6969&amp;tr=udp%3A%2F%2Fexodus.desync.com%3A6969","seeders":0,"leechers":2,"uploader":"R0thschild","files":4,"time":1353948455,"description":"Gallery: \n &lt;a href=&quot;\nhttp://imagedomino.com/?g=396341&quot; rel=&quot;nofollow&quot; target=&quot;_NEW&quot;&gt;\nhttp://imagedomino.com/?g=396341&lt;/a&gt;\n\nStudio\nEvil Angel\nStarring\nNikki Sexx, Krissy Lynn, Mike Adriano, Katie Summers, Brooklyn Lee, Jynx Maze\nGenre\nAnal, All Sex, Big Cock, POV\nDescription\nAnal point of view porn! In the adult DVD Anal Starlets, Mike Adriano offers five scenes of non-stop anal action featuring a combination of new and seasoned talent. As director and performer, Mike fills the scenes with sexual heat in a casual style. 19-year-old Southern California sexpot Jynx Maze gets her ass reamed and worshipped by Mike's tongue and cock.\n\nDuration                         : 1h 5mn\nBit rate                         : 1 349 Kbps\nWidth                            : 576 pixels\nHeight                           : 320 pixels\nDisplay aspect ratio             : 16:9\nFrame rate                       : 29.970 fps\nColor space                      : YUV\nChroma subsampling               : 4:2:0\nBit depth                        : 8 bits\nScan type                        : Progressive\nCompression mode                 : Lossy\nBits/(Pixel*Frame)               : 0.244\nStream size                      : 631 MiB (90%)\n\nDuration                         : 1h 4mn\nBit rate                         : 1 361 Kbps\nWidth                            : 576 pixels\nHeight                           : 320 pixels\nDisplay aspect ratio             : 16:9\nFrame rate                       : 29.970 fps\nColor space                      : YUV\nChroma subsampling               : 4:2:0\nBit depth                        : 8 bits\nScan type                        : Progressive\nCompression mode                 : Lossy\nBits/(Pixel*Frame)               : 0.246\nStream size                      : 631 MiB (90%)\n\nDuration                         : 1h 5mn\nBit rate                         : 1 340 Kbps\nWidth                            : 576 pixels\nHeight                           : 320 pixels\nDisplay aspect ratio             : 16:9\nFrame rate                       : 29.970 fps\nColor space                      : YUV\nChroma subsampling               : 4:2:0\nBit depth                        : 8 bits\nScan type                        : Progressive\nCompression mode                 : Lossy\nBits/(Pixel*Frame)               : 0.243\nStream size                      : 629 MiB (90%)","torrent":{"xt":"urn:btih:32f8612038e5a148e79c91110e923de76a3be42f","amp;dn":"Anal.Starlets.DiSC2.XviD-SWE6RUS","amp;tr":["udp%3A%2F%2Ftracker.openbittorrent.com%3A80","udp%3A%2F%2Fopen.demonii.com%3A1337","udp%3A%2F%2Ftracker.coppersurfer.tk%3A6969","udp%3A%2F%2Fexodus.desync.com%3A6969"],"infoHash":"32f8612038e5a148e79c91110e923de76a3be42f","infoHashBuffer":{"type":"Buffer","data":[50,248,97,32,56,229,161,72,231,156,145,17,14,146,61,231,106,59,228,47]},"announce":[],"urlList":[]}}